Coordinates
version=1
nRows=7
nColumns=40
inDegrees=yes

Units are S.I. units (second, meters, Newtons, ...)
Angles are in degrees.

endheader
time	pelvis_tilt	pelvis_list	pelvis_rotation	pelvis_tx	pelvis_ty	pelvis_tz	hip_flexion_r	hip_adduction_r	hip_rotation_r	knee_angle_r	knee_angle_r_beta	ankle_angle_r	subtalar_angle_r	mtp_angle_r	hip_flexion_l	hip_adduction_l	hip_rotation_l	knee_angle_l	knee_angle_l_beta	ankle_angle_l	subtalar_angle_l	mtp_angle_l	lumbar_extension	lumbar_bending	lumbar_rotation	arm_flex_r	arm_add_r	arm_rot_r	elbow_flex_r	pro_sup_r	wrist_flex_r	wrist_dev_r	arm_flex_l	arm_add_l	arm_rot_l	elbow_flex_l	pro_sup_l	wrist_flex_l	wrist_dev_l
      0.00000000	    -15.74865688	     -4.04952566	     -5.26296642	     -2.17527239	      0.90036886	     -0.04322749	     42.03783149	      2.89495344	    -24.41607456	    -38.40911553	     -0.67036553	      5.29424759	      0.60737591	     14.57222729	      1.60459983	      3.89402606	      8.52151447	    -58.61126046	     -1.02295947	    -24.94887089	     18.14369120	     16.67034307	     -4.13464267	      9.20770832	    -10.22236662	    -15.76212599	    -18.70743486	     -4.81959507	     72.56687551	     89.95437384	      0.00000000	      0.00000000	     12.50091308	     39.04755334	    -41.07369309	     52.01869155	     89.95437384	      0.00000000	      0.00000000
      0.01000000	    -14.58161674	     -3.46961272	     -6.25624000	     -2.14143935	      0.89545887	     -0.03940525	     38.32429393	      3.64428546	    -22.77458441	    -38.03103308	     -0.66376675	      9.19173138	     -0.80360861	     13.46802032	      3.88637637	      3.59920249	      9.02344624	    -64.95057758	     -1.13360143	    -22.65456786	     18.73977470	     15.99790480	     -5.67903867	      8.47614374	     -8.86786930	    -12.43698493	    -18.07196485	     -3.26942439	     73.00300338	     89.95437384	      0.00000000	      0.00000000	     11.26249044	     40.01951536	    -41.54406708	     45.07629152	     89.95437384	      0.00000000	      0.00000000
      0.02000000	    -13.70628328	     -3.35027249	     -7.43009426	     -2.10896056	      0.88967935	     -0.03525007	     35.38424398	      5.20524975	    -20.46953026	    -38.38007766	     -0.66985872	     13.43911738	     -2.16046014	     11.90089822	      6.76477495	      4.16678534	      9.89581662	    -71.52964949	     -1.24842790	    -18.60645491	     19.04674043	     15.20807463	     -7.13511630	      8.15208019	     -6.98638696	     -9.32211486	    -17.60079684	     -1.96669188	     74.50598199	     89.95437384	      0.00000000	      0.00000000	      9.57222810	     41.63878299	    -41.18470777	     40.58490774	     89.95437384	      0.00000000	      0.00000000
      0.03000000	    -14.41183124	     -3.00789486	     -8.91483166	     -2.07970890	      0.88216193	     -0.03094314	     35.59239434	      6.28916930	    -18.24914722	    -40.30714900	     -0.70349246	      9.45990707	     -9.18225625	    -16.18112742	     12.05798775	      5.11894442	     11.04531175	    -78.43438677	     -1.36893830	    -12.68788324	     19.10397055	     20.16370014	     -7.06257435	      7.69572267	     -4.91191230	     -6.03313954	    -17.35595901	     -0.43492004	     76.51714018	     89.95437384	      0.00000000	      0.00000000	      6.50721250	     43.82757795	    -37.99304666	     38.85416781	     89.95437384	      0.00000000	      0.00000000
      0.04000000	    -15.17017701	     -2.01453357	    -10.75915062	     -2.05156277	      0.87576580	     -0.02722566	     36.44531180	      6.39534403	    -15.79240365	    -44.03307727	     -0.76852218	     11.68928883	    -10.39189629	    -15.85962852	     17.69193842	      5.27989715	     11.96688972	    -84.30144457	     -1.47133777	     -8.70745850	     19.14360807	     19.20190834	     -6.94771580	      6.51001241	     -2.31984272	     -2.63430540	    -17.25264083	      0.97658474	     79.10475348	     89.95437384	      0.00000000	      0.00000000	      3.31150083	     46.11558134	    -33.94138887	     38.49023970	     89.95437384	      0.00000000	      0.00000000
      0.05000000	    -15.51600426	     -1.58989564	    -12.11008972	     -2.02211872	      0.87112277	     -0.02271342	     35.45227283	      7.16468471	    -13.09415037	    -45.77679099	     -0.79895572	     14.43061593	    -10.84302053	    -15.53508888	     22.88635410	      6.17644487	     12.08031880	    -89.24252704	     -1.55757593	     -4.63871461	     19.03475215	     18.10396638	     -7.02923525	      5.70100343	      0.03917598	      0.76779934	    -17.17190223	      2.35588500	     81.94715874	     89.95437384	      0.00000000	      0.00000000	     -0.64966883	     48.75925772	    -28.95052520	     39.80742741	     89.95437384	      0.00000000	      0.00000000
      0.06000000	    -15.89124716	     -1.70036862	    -12.93332069	     -1.99180010	      0.86824303	     -0.01825353	     33.38883737	      8.18290693	    -11.26707132	    -45.62799924	     -0.79635882	     16.44188110	    -11.53103449	    -14.75038551	     28.20866985	      7.60482144	     11.19829788	    -93.04880786	     -1.62400806	     -1.99251768	     18.82629757	     17.04585359	     -7.04804047	      5.51543344	      1.75322270	      4.34555214	    -17.38303916	      4.10511284	     85.13766850	     89.95437384	      0.00000000	      0.00000000	     -5.77951781	     50.79266627	    -21.55651397	     41.83332594	     89.95437384	      0.00000000	      0.00000000
